<?xml version="1.0" encoding="utf-8"?>
<!-- Generator: Adobe Illustrator 16.0.0, SVG Export Plug-In . SVG Version: 6.00 Build 0)  -->
<!DOCTYPE svg PUBLIC "-//W3C//DTD SVG 1.1//EN" "http://www.w3.org/Graphics/SVG/1.1/DTD/svg11.dtd">
<svg version="1.1" id="Ebene_1" xmlns="http://www.w3.org/2000/svg" xmlns:xlink="http://www.w3.org/1999/xlink" x="0px" y="0px"
	 width="120.273px" height="26.366px" viewBox="2.613 3.124 120.273 26.366" enable-background="new 2.613 3.124 120.273 26.366"
	 xml:space="preserve">
<g>
	<path fill="#055D9E" d="M58.785,22.152h-2.819v4.709h1.159v-1.973h1.201V23.97h-1.2v-0.922h1.519L58.785,22.152L58.785,22.152z
		 M64.01,24.459c0-1.571-0.937-2.358-2.271-2.358c-1.417,0-2.295,0.892-2.295,2.437c0,1.401,0.844,2.394,2.343,2.394
		C63.263,26.933,64.01,25.932,64.01,24.459 M62.673,24.459c0,1.25-0.335,1.651-0.95,1.651c-0.66,0-0.97-0.35-0.97-1.536
		c0-1.068,0.281-1.637,0.97-1.637C62.453,22.938,62.673,23.503,62.673,24.459 M69.129,26.863c-0.122-0.213-0.979-1.616-1.295-1.975
		c0.489-0.105,0.958-0.649,0.958-1.306c0-0.386-0.112-0.731-0.421-1.034c-0.305-0.309-0.831-0.399-1.341-0.399h-1.823v4.712h1.148
		v-1.896h0.077c0.143,0,0.234,0.152,0.808,1.106c0.194,0.331,0.289,0.473,0.501,0.786L69.129,26.863L69.129,26.863z M67.574,23.585
		c0,0.374-0.204,0.538-0.844,0.538h-0.391V23.02h0.408C67.389,23.02,67.574,23.205,67.574,23.585 M76.492,21.375
		c-0.535-0.471-1.199-0.705-1.94-0.705c-0.576,0-1.035,0.134-1.479,0.431c-0.854,0.568-1.275,1.483-1.275,2.771
		c0,0.909,0.206,1.563,0.657,2.133c0.485,0.63,1.16,0.924,2.075,0.924c0.719,0,1.403-0.169,2.022-0.538v-2.913h-2.355l0.157,1.001
		h0.929v1.386c-0.198,0.105-0.425,0.145-0.691,0.145c-0.396,0-0.729-0.116-0.958-0.337c-0.306-0.308-0.459-0.871-0.459-1.739
		c0-0.913,0.108-1.567,0.526-1.96c0.204-0.205,0.509-0.307,0.874-0.307c0.464,0,0.883,0.147,1.269,0.471L76.492,21.375
		L76.492,21.375z M80.979,26.863v-0.958h-1.863v-1.044h1.368v-0.92h-1.374v-0.883h1.653l0.164-0.909h-2.992v4.708L80.979,26.863
		L80.979,26.863z M86.406,24.459c0-1.571-0.934-2.358-2.271-2.358c-1.42,0-2.298,0.892-2.298,2.437c0,1.401,0.844,2.394,2.342,2.394
		C85.666,26.933,86.406,25.932,86.406,24.459 M85.066,24.459c0,1.25-0.337,1.651-0.949,1.651c-0.656,0-0.971-0.35-0.971-1.536
		c0-1.068,0.277-1.637,0.971-1.637C84.851,22.938,85.066,23.503,85.066,24.459 M91.099,25.32c0-0.719-0.505-1.176-1.331-1.37
		l-0.633-0.146c-0.392-0.1-0.494-0.196-0.494-0.424c0-0.266,0.262-0.429,0.633-0.429c0.369,0,0.788,0.111,1.229,0.35l0.553-0.818
		c-0.438-0.289-1.165-0.479-1.804-0.479c-1.134,0-1.918,0.631-1.918,1.502c0,0.262,0.065,0.499,0.199,0.722
		c0.183,0.315,0.515,0.546,1.02,0.671l0.598,0.138c0.43,0.096,0.617,0.272,0.617,0.525c0,0.326-0.277,0.468-0.833,0.468
		c-0.519,0-0.913-0.142-1.399-0.354l-0.39,0.892c0.566,0.273,1.158,0.395,1.726,0.395C90.214,26.97,91.099,26.318,91.099,25.32
		 M95.755,26.476l-0.521-0.678c-0.311,0.211-0.548,0.284-0.853,0.284c-0.41,0-0.694-0.148-0.893-0.421
		c-0.177-0.235-0.229-0.612-0.229-1.29c0-0.535,0.091-0.909,0.328-1.148c0.161-0.168,0.479-0.291,0.757-0.291
		c0.247,0,0.526,0.088,0.771,0.235l0.527-0.752c-0.262-0.204-0.814-0.369-1.328-0.369c-0.827,0-1.59,0.385-1.995,1.039
		c-0.267,0.434-0.38,0.913-0.38,1.541c0,0.746,0.238,1.347,0.729,1.8c0.41,0.386,0.963,0.509,1.641,0.509
		C94.915,26.938,95.352,26.79,95.755,26.476 M97.853,22.152h-1.22v4.709h1.22V22.152L97.853,22.152z M102.458,26.863v-0.958h-1.864
		v-1.044h1.368v-0.92h-1.375v-0.883h1.647l0.169-0.909h-2.995v4.708L102.458,26.863L102.458,26.863z M106.436,25.06
		c-0.14-0.396-0.235-0.683-0.436-1.09l-0.908-1.817h-1.286v4.709h1.104l-0.031-1.795c-0.005-0.318-0.015-0.966-0.031-1.336
		c0.133,0.343,0.318,0.764,0.518,1.202l0.879,1.927h1.198v-4.707h-1.087l0.022,1.727C106.372,24.214,106.406,24.624,106.436,25.06
		 M112.371,26.476l-0.52-0.678c-0.304,0.211-0.55,0.284-0.854,0.284c-0.409,0-0.693-0.148-0.895-0.421
		c-0.171-0.235-0.23-0.612-0.23-1.29c0-0.535,0.088-0.909,0.325-1.148c0.162-0.168,0.484-0.291,0.759-0.291
		c0.247,0,0.53,0.088,0.775,0.235l0.526-0.752c-0.268-0.204-0.819-0.369-1.329-0.369c-0.831,0-1.593,0.385-1.998,1.039
		c-0.262,0.434-0.375,0.913-0.375,1.541c0,0.746,0.231,1.347,0.728,1.8c0.411,0.386,0.966,0.509,1.64,0.509
		C111.527,26.938,111.969,26.79,112.371,26.476 M116.3,26.863v-0.958h-1.866v-1.044h1.368v-0.92h-1.371v-0.883h1.643l0.171-0.909
		h-2.991v4.708L116.3,26.863L116.3,26.863z M121.142,25.32c0-0.719-0.505-1.176-1.33-1.37l-0.632-0.146
		c-0.397-0.1-0.495-0.196-0.495-0.424c0-0.266,0.264-0.429,0.633-0.429s0.783,0.111,1.23,0.35l0.55-0.818
		c-0.436-0.289-1.16-0.479-1.808-0.479c-1.129,0-1.91,0.631-1.91,1.502c0,0.262,0.063,0.499,0.193,0.722
		c0.188,0.315,0.519,0.546,1.024,0.671l0.597,0.138c0.433,0.096,0.619,0.272,0.619,0.525c0,0.326-0.285,0.468-0.833,0.468
		c-0.521,0-0.919-0.142-1.404-0.354l-0.387,0.892c0.571,0.273,1.156,0.395,1.729,0.395C120.257,26.97,121.142,26.318,121.142,25.32"
		/>
	<path fill="#055D9E" d="M10.434,12.832c-0.535-0.463-1.2-0.702-1.937-0.702c-0.581,0-1.036,0.132-1.485,0.43
		c-0.851,0.567-1.27,1.482-1.27,2.768c0,0.914,0.199,1.563,0.649,2.129c0.49,0.633,1.164,0.931,2.078,0.931
		c0.718,0,1.404-0.177,2.024-0.541v-2.912H8.136l0.157,1h0.931v1.393c-0.202,0.1-0.419,0.148-0.694,0.148
		c-0.394,0-0.728-0.126-0.956-0.342c-0.308-0.309-0.457-0.871-0.457-1.739c0-0.912,0.105-1.567,0.519-1.961
		c0.209-0.208,0.515-0.312,0.875-0.312c0.463,0,0.878,0.152,1.27,0.476L10.434,12.832L10.434,12.832z M11.795,12.227v6.092h1.224
		V15.61h1.554v-1h-1.554v-1.395h1.937l0.14-0.992h-3.301V12.227z M15.942,12.227l-0.27,1.016h1.876c0.367,0,0.622-0.046,0.622-0.046
		s-0.21,0.269-0.376,0.552l-2.242,3.71v0.858h3.807l0.313-0.999h-2.053c-0.247,0-0.605,0.036-0.605,0.036s0.181-0.212,0.318-0.429
		l2.262-3.819v-0.879L15.942,12.227L15.942,12.227z M26.849,12.832c-0.532-0.463-1.2-0.702-1.937-0.702
		c-0.578,0-1.031,0.132-1.484,0.43c-0.848,0.572-1.271,1.482-1.271,2.768c0,0.915,0.203,1.563,0.648,2.137
		c0.491,0.631,1.167,0.924,2.079,0.924c0.721,0,1.404-0.179,2.025-0.541v-2.912h-2.357l0.161,1h0.927v1.393
		c-0.203,0.1-0.422,0.15-0.694,0.15c-0.394,0-0.728-0.125-0.956-0.343c-0.305-0.31-0.457-0.871-0.457-1.741
		c0-0.911,0.107-1.567,0.521-1.961c0.207-0.203,0.516-0.309,0.874-0.309c0.469,0,0.881,0.152,1.275,0.474L26.849,12.832
		L26.849,12.832z M31.252,18.318v-0.953h-1.86v-1.043h1.37V15.4h-1.381v-0.874h1.65l0.166-0.911h-2.986v4.706L31.252,18.318
		L31.252,18.318z M36.442,18.318c-0.125-0.209-0.981-1.612-1.298-1.973c0.494-0.105,0.958-0.65,0.958-1.306
		c0-0.391-0.114-0.729-0.425-1.034c-0.305-0.305-0.831-0.396-1.337-0.396h-1.825v4.708h1.149v-1.893h0.078
		c0.137,0,0.239,0.145,0.808,1.104c0.192,0.333,0.292,0.476,0.499,0.79L36.442,18.318L36.442,18.318z M34.881,15.042
		c0,0.373-0.202,0.536-0.842,0.536h-0.385v-1.104h0.401C34.698,14.475,34.881,14.662,34.881,15.042 M42.667,18.318l-0.484-4.71
		h-1.457l-0.617,2.149c-0.08,0.275-0.162,0.599-0.207,0.886c-0.053-0.296-0.104-0.525-0.193-0.839l-0.592-2.194h-1.485l-0.505,4.708
		h1.181l0.143-2.296c0.017-0.286,0.04-0.677,0.052-0.999c0.068,0.375,0.165,0.788,0.229,0.999l0.637,2.296h1.003l0.701-2.375
		c0.068-0.247,0.178-0.551,0.234-0.819c0.022,0.322,0.04,0.603,0.057,0.844l0.159,2.352h1.146V18.318L42.667,18.318z M47.729,18.318
		l-1.632-4.727h-1.188l-1.739,4.727h1.238l0.33-0.999h1.392l0.367,0.999H47.729L47.729,18.318z M45.872,16.454h-0.848
		c0.14-0.502,0.342-1.271,0.435-1.744C45.543,15.181,45.74,15.962,45.872,16.454 M51.11,16.514c-0.139-0.394-0.23-0.682-0.432-1.087
		l-0.917-1.815h-1.279v4.71h1.104l-0.025-1.796c-0.012-0.316-0.019-0.964-0.034-1.335c0.129,0.345,0.316,0.764,0.514,1.202
		l0.882,1.933h1.198v-4.713h-1.088l0.021,1.728C51.055,15.672,51.078,16.085,51.11,16.514 M55.57,12.227v6.092h1.199v-2.546
		c0.081,0.013,0.135,0.03,0.193,0.054c0.223,0.1,0.406,0.397,1.009,1.491c0.235,0.428,0.333,0.599,0.571,0.999h1.441
		c0,0-1.107-1.926-1.462-2.368c-0.077-0.105-0.134-0.159-0.246-0.252c0.749-0.017,1.357-0.771,1.357-1.687
		c0-1.068-0.713-1.785-1.79-1.785H55.57V12.227L55.57,12.227L55.57,12.227z M56.769,13.21h0.44c0.3,0,0.551,0.032,0.69,0.085
		c0.289,0.105,0.438,0.364,0.438,0.746c0,0.257-0.083,0.475-0.235,0.612c-0.166,0.151-0.396,0.205-0.922,0.205H56.77L56.769,13.21
		L56.769,13.21z M63.934,18.318v-0.953h-1.863v-1.043h1.368V15.4h-1.376v-0.874h1.65l0.164-0.911h-2.985v4.706L63.934,18.318
		L63.934,18.318z M68.699,16.777c0-0.721-0.515-1.177-1.334-1.368l-0.628-0.151c-0.401-0.095-0.494-0.192-0.494-0.424
		c0-0.259,0.263-0.428,0.629-0.428c0.369,0,0.777,0.112,1.23,0.353l0.551-0.816c-0.436-0.29-1.165-0.482-1.805-0.482
		c-1.132,0-1.912,0.63-1.912,1.498c0,0.264,0.059,0.499,0.188,0.731c0.192,0.314,0.522,0.545,1.033,0.667l0.595,0.138
		c0.427,0.096,0.614,0.271,0.614,0.523c0,0.33-0.285,0.467-0.836,0.467c-0.514,0-0.91-0.139-1.405-0.348l-0.38,0.894
		c0.565,0.269,1.15,0.394,1.728,0.394C67.811,18.423,68.699,17.776,68.699,16.777 M72.938,18.318v-0.953h-1.855v-1.043h1.363V15.4
		h-1.377v-0.874h1.65l0.165-0.911h-2.987v4.706L72.938,18.318L72.938,18.318L72.938,18.318z M78.038,18.318l-1.629-4.727h-1.188
		l-1.741,4.727h1.239l0.336-0.999h1.396l0.355,0.999H78.038L78.038,18.318z M76.187,16.454H75.33
		c0.141-0.502,0.347-1.271,0.446-1.744C75.858,15.181,76.053,15.962,76.187,16.454 M82.729,18.318
		c-0.119-0.209-0.986-1.612-1.297-1.973c0.486-0.105,0.951-0.65,0.951-1.306c0-0.391-0.108-0.729-0.418-1.034
		c-0.306-0.305-0.833-0.396-1.343-0.396H78.8v4.708h1.146v-1.893h0.078c0.142,0,0.237,0.145,0.808,1.104
		c0.191,0.333,0.292,0.476,0.503,0.79L82.729,18.318L82.729,18.318z M81.164,15.042c0,0.373-0.203,0.536-0.84,0.536h-0.386v-1.104
		h0.407C80.979,14.475,81.164,14.662,81.164,15.042 M87.014,17.931l-0.524-0.674c-0.31,0.208-0.544,0.278-0.849,0.278
		c-0.417,0-0.695-0.148-0.896-0.416c-0.177-0.242-0.23-0.616-0.23-1.292c0-0.535,0.086-0.915,0.323-1.152
		c0.168-0.166,0.485-0.289,0.76-0.289c0.244,0,0.531,0.088,0.777,0.237l0.521-0.755c-0.262-0.199-0.812-0.361-1.322-0.361
		c-0.832,0-1.596,0.38-2.002,1.038c-0.263,0.429-0.379,0.911-0.379,1.544c0,0.745,0.239,1.341,0.733,1.796
		c0.41,0.387,0.959,0.51,1.636,0.51C86.171,18.401,86.615,18.248,87.014,17.931 M91.443,18.318v-4.71h-1.189v1.768h-1.27v-1.768
		h-1.179v4.71h1.179v-2.006h1.27v2.006H91.443L91.443,18.318z M98.766,12.576c-0.332-0.292-0.94-0.482-1.55-0.482
		c-0.98,0-1.854,0.526-2.333,1.413c-0.272,0.524-0.41,1.126-0.41,1.89c0,0.897,0.245,1.632,0.742,2.186
		c0.496,0.569,1.15,0.841,1.981,0.841c0.702,0,1.222-0.178,1.698-0.57l-0.563-0.771c-0.36,0.291-0.686,0.394-1.047,0.394
		c-0.52,0-0.927-0.235-1.173-0.684c-0.182-0.334-0.257-0.798-0.257-1.63c0-0.714,0.11-1.216,0.342-1.572
		c0.224-0.327,0.626-0.526,1.038-0.526c0.343,0,0.663,0.114,0.972,0.342L98.766,12.576L98.766,12.576z M102.738,18.318v-0.953
		h-1.861v-1.043h1.369V15.4h-1.379v-0.874h1.646l0.167-0.911h-2.987v4.706L102.738,18.318L102.738,18.318z M106.629,16.514
		c-0.139-0.394-0.235-0.682-0.437-1.087l-0.911-1.815h-1.28v4.71h1.104l-0.03-1.796c-0.009-0.316-0.019-0.964-0.034-1.335
		c0.132,0.345,0.315,0.764,0.52,1.202l0.874,1.933h1.198v-4.713h-1.078l0.012,1.728C106.57,15.672,106.596,16.085,106.629,16.514
		 M112.499,13.612h-3.824v0.927h1.22v3.779h1.195v-3.779h1.176L112.499,13.612L112.499,13.612z M117.12,18.318
		c-0.122-0.209-0.985-1.612-1.301-1.973c0.489-0.105,0.96-0.65,0.96-1.306c0-0.391-0.113-0.729-0.426-1.034
		c-0.305-0.305-0.833-0.396-1.344-0.396h-1.822v4.708h1.147v-1.893h0.077c0.145,0,0.241,0.145,0.813,1.104
		c0.187,0.333,0.29,0.476,0.499,0.79L117.12,18.318L117.12,18.318z M115.562,15.042c0,0.373-0.207,0.536-0.843,0.536h-0.383v-1.104
		h0.399C115.374,14.475,115.562,14.662,115.562,15.042 M121.082,18.318v-0.953h-1.86v-1.043h1.371V15.4h-1.384v-0.874h1.651
		l0.166-0.911h-2.988v4.706L121.082,18.318L121.082,18.318L121.082,18.318z"/>
	<path fill="#055D9E" d="M60.106,9.777V6.123h-0.522v1.502h-1.392V6.123h-0.503v3.654h0.503V8.038h1.392v1.739H60.106L60.106,9.777z
		 M62.844,9.777V9.353h-1.292V8.521h0.981V8.114h-0.986V7.393h1.183l0.071-0.404h-1.75v2.789H62.844L62.844,9.777z M65.315,9.369
		h-1.181V6.988h-0.499v2.789h1.598L65.315,9.369L65.315,9.369z M68.749,9.777l-0.275-2.789h-0.683l-0.468,1.537
		c-0.063,0.2-0.139,0.518-0.149,0.562c-0.002-0.042-0.078-0.365-0.143-0.565l-0.476-1.533h-0.66l-0.288,2.789h0.487l0.138-1.69
		c0.02-0.224,0.036-0.532,0.036-0.58c0.014,0.057,0.082,0.373,0.151,0.58l0.528,1.69h0.43l0.558-1.701
		c0.071-0.219,0.146-0.51,0.159-0.551c0,0.052,0.002,0.344,0.026,0.565l0.14,1.687H68.749L68.749,9.777z M71.656,9.777V6.988h-0.5
		v1.111h-1.118V6.988h-0.494v2.789h0.494V8.503h1.118v1.274H71.656L71.656,9.777z M73.739,9.825c0.461,0,0.759-0.139,0.99-0.428
		c0.201-0.238,0.285-0.558,0.285-1.013c0-0.445-0.099-0.776-0.296-1.008c-0.235-0.285-0.559-0.434-1.01-0.434
		c-0.8,0-1.291,0.541-1.291,1.432c0,0.463,0.125,0.81,0.383,1.092C73.038,9.713,73.316,9.825,73.739,9.825 M73.739,9.454
		c-0.28,0-0.496-0.093-0.597-0.268c-0.11-0.195-0.174-0.472-0.174-0.842c0-0.33,0.043-0.56,0.145-0.72
		c0.112-0.179,0.331-0.291,0.589-0.291c0.288,0,0.504,0.101,0.635,0.347c0.085,0.176,0.117,0.4,0.117,0.743
		c0,0.288-0.016,0.459-0.089,0.627C74.268,9.326,74.054,9.454,73.739,9.454 M77.479,9.369h-1.181V6.988h-0.5v2.789h1.6L77.479,9.369
		L77.479,9.369z M79.547,6.988h-2.173v0.404h0.805v2.385h0.488V7.393h0.805L79.547,6.988L79.547,6.988z M81.969,9.372h-1.156
		c-0.104,0-0.208,0.004-0.28,0.013c0.043-0.047,0.106-0.132,0.175-0.228l1.229-1.799v-0.37h-1.825l-0.123,0.4h1.069
		c0.152,0,0.254,0,0.313-0.001c-0.046,0.044-0.11,0.143-0.184,0.241l-1.245,1.797v0.352h1.889L81.969,9.372L81.969,9.372z
		 M86.181,9.529l-0.249-0.338c-0.198,0.155-0.392,0.227-0.676,0.227c-0.386,0-0.725-0.188-0.895-0.592
		c-0.091-0.211-0.139-0.452-0.139-0.856c0-0.44,0.063-0.747,0.179-0.982c0.171-0.341,0.454-0.53,0.81-0.53
		c0.242,0,0.446,0.065,0.647,0.21l0.252-0.333c-0.229-0.183-0.55-0.285-0.899-0.285c-0.562,0-1.045,0.318-1.313,0.834
		c-0.152,0.3-0.235,0.664-0.235,1.09c0,0.531,0.133,0.973,0.396,1.309c0.273,0.346,0.657,0.547,1.14,0.547
		C85.564,9.831,85.903,9.73,86.181,9.529 M88.583,9.777V9.353h-1.292V8.521h0.985V8.114h-0.988V7.393h1.187l0.07-0.404h-1.754v2.789
		H88.583L88.583,9.777z M91.505,9.777V6.988h-0.477l0.015,1.304c0.007,0.33,0.043,0.685,0.051,0.746
		c-0.036-0.069-0.17-0.359-0.34-0.646l-0.809-1.405h-0.564v2.79h0.493l-0.022-1.341c-0.007-0.347-0.017-0.631-0.025-0.779
		c0.02,0.053,0.202,0.448,0.371,0.722l0.794,1.398L91.505,9.777L91.505,9.777z M94.324,6.988H92.16v0.404h0.792v2.385h0.493V7.393
		h0.806L94.324,6.988L94.324,6.988z M97.032,9.777c-0.015-0.016-0.258-0.346-0.413-0.574c-0.149-0.194-0.31-0.4-0.398-0.512
		c-0.036-0.048-0.094-0.1-0.14-0.132c0.473-0.024,0.771-0.316,0.771-0.78c0-0.259-0.126-0.482-0.314-0.627
		c-0.167-0.124-0.386-0.17-0.802-0.17h-0.832v2.79h0.493V8.58c0.099,0.009,0.16,0.034,0.239,0.101
		c0.144,0.108,0.286,0.28,0.525,0.664c0.095,0.153,0.176,0.291,0.264,0.43h0.607V9.777L97.032,9.777z M95.703,7.384
		c0.157,0,0.272,0.009,0.36,0.043c0.181,0.054,0.275,0.188,0.275,0.363c0,0.151-0.045,0.26-0.145,0.332
		c-0.101,0.081-0.25,0.11-0.529,0.11h-0.268V7.385L95.703,7.384L95.703,7.384z M99.479,9.777V9.353h-1.297V8.521h0.981V8.114h-0.986
		V7.393h1.188l0.067-0.404h-1.752v2.789H99.479L99.479,9.777z M103.798,7.182c0-0.389-0.165-0.695-0.479-0.895
		c-0.195-0.124-0.397-0.167-0.873-0.167h-0.979v3.655h0.514V8.344h0.607c0.385,0,0.584-0.077,0.767-0.222
		C103.683,7.871,103.798,7.596,103.798,7.182 M103.234,7.241c0,0.205-0.055,0.356-0.155,0.483c-0.117,0.15-0.281,0.204-0.523,0.204
		h-0.572V6.542h0.476c0.288,0,0.471,0.058,0.596,0.178C103.173,6.836,103.234,7.005,103.234,7.241 M105.529,9.825
		c0.46,0,0.756-0.139,0.989-0.428c0.196-0.238,0.285-0.558,0.285-1.013c0-0.445-0.1-0.776-0.298-1.008
		c-0.234-0.285-0.56-0.434-1.008-0.434c-0.802,0-1.293,0.541-1.293,1.432c0,0.463,0.123,0.81,0.386,1.092
		C104.828,9.713,105.105,9.825,105.529,9.825 M105.529,9.454c-0.281,0-0.494-0.093-0.598-0.268c-0.112-0.195-0.18-0.472-0.18-0.842
		c0-0.33,0.046-0.56,0.148-0.72c0.112-0.179,0.329-0.291,0.586-0.291c0.293,0,0.506,0.101,0.632,0.347
		c0.089,0.176,0.124,0.4,0.124,0.743c0,0.288-0.02,0.459-0.091,0.627C106.051,9.326,105.839,9.454,105.529,9.454 M109.284,6.988
		h-2.169v0.404h0.797v2.385h0.495V7.393h0.809L109.284,6.988L109.284,6.988z M111.809,8.924c0-0.188-0.073-0.375-0.204-0.502
		c-0.126-0.133-0.342-0.227-0.562-0.284l-0.379-0.099c-0.322-0.088-0.444-0.182-0.444-0.357c0-0.225,0.219-0.361,0.542-0.361
		c0.246,0,0.506,0.072,0.755,0.226l0.232-0.358c-0.254-0.168-0.646-0.274-1.007-0.274c-0.628,0-1.058,0.347-1.058,0.843
		c0,0.137,0.039,0.268,0.119,0.385c0.112,0.168,0.307,0.292,0.559,0.358l0.4,0.1c0.357,0.096,0.496,0.219,0.496,0.422
		c0,0.134-0.07,0.243-0.204,0.318c-0.113,0.063-0.236,0.088-0.427,0.088c-0.305,0-0.567-0.068-0.863-0.227l-0.189,0.387
		c0.313,0.164,0.673,0.25,1.026,0.25c0.29,0,0.536-0.051,0.74-0.164C111.63,9.513,111.809,9.238,111.809,8.924 M113.189,6.988h-0.63
		v2.789h0.812c0.209,0,0.382-0.007,0.501-0.039c0.345-0.071,0.904-0.453,0.904-1.359c0-0.829-0.382-1.167-0.797-1.295
		C113.753,6.988,113.479,6.988,113.189,6.988 M114.236,8.421c0,0.587-0.23,0.845-0.522,0.922c-0.079,0.021-0.178,0.028-0.268,0.028
		h-0.39V7.384h0.33c0.287,0,0.477,0.055,0.637,0.253C114.177,7.815,114.236,8.051,114.236,8.421 M117.716,9.777l-1.014-2.789h-0.579
		l-1.042,2.789h0.514l0.268-0.728h1.04l0.271,0.728H117.716L117.716,9.777z M116.79,8.652h-0.802
		c0.019-0.076,0.388-1.143,0.405-1.221C116.408,7.51,116.76,8.554,116.79,8.652 M121.271,9.777l-0.281-2.789h-0.678l-0.475,1.537
		c-0.063,0.2-0.137,0.518-0.153,0.562c-0.002-0.042-0.075-0.365-0.136-0.565l-0.481-1.533h-0.657l-0.286,2.789h0.482l0.139-1.69
		c0.018-0.224,0.035-0.532,0.035-0.58c0.013,0.057,0.082,0.373,0.151,0.58l0.532,1.69h0.433l0.559-1.701
		c0.062-0.219,0.143-0.51,0.15-0.551c0,0.052,0.005,0.344,0.025,0.565l0.148,1.687H121.271L121.271,9.777z"/>
</g>
</svg>
